<?xml version="1.0" encoding="UTF-8"?>
<svg width="17px" height="12px" viewBox="0 0 17 12" version="1.1" xmlns="http://www.w3.org/2000/svg" xmlns:xlink="http://www.w3.org/1999/xlink">
    <!-- Generator: Sketch 41.2 (35397) - http://www.bohemiancoding.com/sketch -->
    <title>Shape</title>
    <desc>Created with Sketch.</desc>
    <defs></defs>
    <g id="Page-1" stroke="none" stroke-width="1" fill="none" fill-rule="evenodd">
        <g id="Home" transform="translate(-727.000000, -177.000000)" fill="#FFFFFF">
            <g id="left-arrow-(2)" transform="translate(735.500000, 184.000000) scale(-1, 1) translate(-735.500000, -184.000000) translate(727.000000, 178.000000)">
                <path d="M5.88156522,-0.473565217 C6.11321739,-0.705217391 6.47791304,-0.705217391 6.70956522,-0.473565217 C6.9333913,-0.24973913 6.9333913,0.122782609 6.70956522,0.346086957 L2.51113043,4.54452174 L16.3653913,4.54452174 C16.6883478,4.54452174 16.9533913,4.80121739 16.9533913,5.12417391 C16.9533913,5.44713043 16.6883478,5.71217391 16.3653913,5.71217391 L2.51113043,5.71217391 L6.70956522,9.90278261 C6.9333913,10.1344348 6.9333913,10.5074783 6.70956522,10.7307826 C6.47791304,10.9624348 6.11321739,10.9624348 5.88156522,10.7307826 L0.689217391,5.53843478 C0.465391304,5.3146087 0.465391304,4.94208696 0.689217391,4.71878261 L5.88156522,-0.473565217 Z" id="Shape"></path>
            </g>
        </g>
    </g>
</svg>